<?xml version="1.0" standalone="no"?>
<!DOCTYPE svg PUBLIC "-//W3C//DTD SVG 20010904//EN"
 "http://www.w3.org/TR/2001/REC-SVG-20010904/DTD/svg10.dtd">
<svg version="1.0" xmlns="http://www.w3.org/2000/svg"
 width="710.000000pt" height="710.000000pt" viewBox="0 0 710.000000 710.000000"
 preserveAspectRatio="xMidYMid meet">
<metadata>
Created by potrace 1.14, written by Peter Selinger 2001-2017
</metadata>
<g transform="translate(0.000000,710.000000) scale(0.100000,-0.100000)"
fill="#000000" stroke="none">
<path d="M5893 6875 c-204 -36 -384 -129 -541 -279 -196 -188 -304 -439 -306
-711 -1 -171 14 -278 53 -370 5 -11 19 -45 31 -75 20 -49 81 -154 120 -205 36
-49 190 -193 240 -226 220 -145 487 -206 735 -168 141 21 302 86 428 171 61
41 197 171 249 238 40 51 122 215 146 290 68 213 65 469 -9 668 -27 74 -91
202 -101 202 -4 0 -8 5 -8 11 0 16 -89 125 -147 180 -148 142 -327 233 -537
274 -87 17 -258 17 -353 0z"/>
<path d="M2658 5984 c-2 -1 -28 -6 -58 -9 -30 -3 -73 -8 -95 -11 -58 -7 -269
-45 -276 -49 -3 -2 -17 -6 -30 -8 -32 -6 -158 -43 -229 -67 -318 -108 -602
-262 -880 -479 -80 -62 -308 -281 -396 -381 -178 -202 -377 -531 -489 -810
-98 -242 -165 -518 -193 -793 -9 -92 -9 -472 1 -557 12 -116 18 -154 27 -200
5 -25 11 -58 14 -75 11 -83 77 -317 126 -450 56 -151 111 -270 193 -415 88
-155 217 -340 319 -458 146 -167 410 -404 558 -501 30 -20 57 -39 60 -42 24
-28 341 -195 482 -253 146 -60 402 -138 528 -160 85 -16 221 -36 290 -43 142
-15 598 -7 670 12 8 2 35 7 60 10 224 29 555 132 794 245 201 95 455 260 628
407 44 37 297 290 330 330 50 59 183 238 208 278 13 22 28 42 32 43 4 2 8 7 8
12 0 4 18 37 39 72 168 277 311 667 361 988 6 41 14 86 16 100 19 109 26 503
11 655 -9 100 -15 134 -53 348 -3 16 -19 77 -36 135 -16 59 -31 112 -32 119
-1 7 -5 16 -9 19 -4 4 -7 13 -7 21 0 23 -90 243 -144 353 -151 304 -316 533
-565 780 -235 234 -461 397 -749 539 -135 67 -277 127 -285 120 -2 -2 -10 1
-18 7 -24 20 -305 100 -419 120 -25 4 -47 8 -50 9 -3 1 -45 7 -95 14 -49 7
-103 15 -120 18 -33 6 -522 13 -527 7z"/>
</g>
</svg>
